<?xml version="1.0" encoding="utf-8"?>
<!-- Generator: Adobe Illustrator 21.0.0, SVG Export Plug-In . SVG Version: 6.00 Build 0)  -->
<svg version="1.0" id="Layer_1" xmlns="http://www.w3.org/2000/svg" xmlns:xlink="http://www.w3.org/1999/xlink" x="0px" y="0px"
	 viewBox="0 0 400 150" style="enable-background:new 0 0 400 150;" xml:space="preserve">
<style type="text/css">
	.st0{clip-path:url(#SVGID_2_);fill:#FF5D67;}
	.st1{filter:url(#Adobe_OpacityMaskFilter);}
	.st2{clip-path:url(#SVGID_4_);}
	.st3{clip-path:url(#SVGID_7_);fill:url(#SVGID_8_);}
	.st4{clip-path:url(#SVGID_4_);mask:url(#SVGID_5_);fill:url(#SVGID_9_);}
	.st5{fill:#00C4FF;}
	.st6{clip-path:url(#SVGID_11_);fill:#00C4FF;}
</style>
<g>
	<defs>
		<rect id="SVGID_1_" x="14" y="15.3" width="372.7" height="116.7"/>
	</defs>
	<clipPath id="SVGID_2_">
		<use xlink:href="#SVGID_1_"  style="overflow:visible;"/>
	</clipPath>
	<path class="st0" d="M48.3,76.1c-3.4-2.6-7.4-3.4-11.8-3.4c-3.4,0-6.8,1.1-6.8,3.7c0,3.4,3.4,3.9,8.3,4.4
		c10,1.1,20.3,5.1,20.3,16.6c0,11.4-10.7,16.3-22,16.3c-9,0.1-15.5-1.5-22.4-8.8l7.8-9c4.9,4.8,10.5,5.7,14.7,5.7
		c4.7,0,7.9-1.6,7.9-4.4c0-2.5-2.9-4.1-8.4-4.6c-11-1-20.4-3.8-20.4-16.3c0-10.6,10.4-15.2,21-15.2c7.5,0,13.4,1.7,18.8,5.9
		L48.3,76.1z"/>
	<polygon class="st0" points="93.3,76.7 99.5,96.4 102.2,86.4 105.5,76.7 119.3,76.7 106.3,112.3 94.2,112.3 89.3,98.9 84.4,112.3 
		72.2,112.3 59.3,76.7 73,76.7 76.4,86.4 79.1,96.4 85.3,76.7 	"/>
	<rect x="125.2" y="77.3" class="st0" width="13.3" height="34.8"/>
	<path class="st0" d="M172.4,112.1V92.5c0-4.4-2.5-5.9-4.9-5.9c-3.2,0-6.1,2.1-6.1,6.8v18.6h-13V76.7H160l0.6,3.9
		c3-3.5,7.5-4.8,11.2-4.7c7.5,0.1,13.8,4,13.8,16.6v19.6H172.4z"/>
	<path class="st0" d="M203.9,114.6c-0.1,5.5,3.2,6.7,6.7,6.7c3.4,0,6.5-1.6,6.5-5.1c0-2.6-1.6-4.7-6.4-4.7
		c-11.9,0-19.7-6.9-19.7-17.8c0-11.1,8.7-18.1,19.7-18.1c2.4,0,4.9,0.5,7.3,1.4c1.2-1.6,2.6-3.4,3.8-4.9l9.5,6.8l-4.6,5.4
		c2.6,2.9,3.5,6.4,3.4,9.5c-0.1,4.4-2.4,8.8-6.4,11.8c6.5,3.7,6.9,8.7,6.9,10.7c0,11.5-10,15.8-20.1,15.8
		c-12.7,0-19.8-6.6-19.1-17.4H203.9z M203.8,93.7c0,4.2,3,6.9,6.9,6.9c3.5,0,6.7-2.2,6.7-6.9c0-4-2.8-7.3-6.7-7.3
		C206.8,86.4,203.8,88.9,203.8,93.7"/>
</g>
<g>
	<defs>
		<path id="SVGID_3_" d="M168.5,15.3c0,24-14.7,40.8-35.7,40.8c0,0,0,0,0,0c-3.7,0-7.5,2.2-7.5,6.7c0,4.4,3.7,6.6,7.5,6.6
			c0.1,0,0.2,0,0.2,0c28.3-0.1,48.8-22.9,48.8-54.1H168.5z"/>
	</defs>
	<clipPath id="SVGID_4_">
		<use xlink:href="#SVGID_3_"  style="overflow:visible;"/>
	</clipPath>
	<defs>
		<filter id="Adobe_OpacityMaskFilter" filterUnits="userSpaceOnUse" x="98.3" y="-12.9" width="110.5" height="110.5">
			<feColorMatrix  type="matrix" values="1 0 0 0 0  0 1 0 0 0  0 0 1 0 0  0 0 0 1 0"/>
		</filter>
	</defs>
	<mask maskUnits="userSpaceOnUse" x="98.3" y="-12.9" width="110.5" height="110.5" id="SVGID_5_">
		<g class="st1">
			<g>
				<defs>
					
						<rect id="SVGID_6_" x="114.4" y="3.3" transform="matrix(0.7377 -0.6752 0.6752 0.7377 11.6728 114.7975)" width="78.3" height="78.1"/>
				</defs>
				<clipPath id="SVGID_7_" class="st2">
					<use xlink:href="#SVGID_6_"  style="overflow:visible;"/>
				</clipPath>
				
					<linearGradient id="SVGID_8_" gradientUnits="userSpaceOnUse" x1="4.1075" y1="124.9593" x2="6.5763" y2="124.9593" gradientTransform="matrix(19.9651 -18.2722 -18.2722 -19.9651 2331.6582 2633.4631)">
					<stop  offset="0" style="stop-color:#FFFFFF"/>
					<stop  offset="0.1575" style="stop-color:#FFFFFF"/>
					<stop  offset="0.2145" style="stop-color:#D7D7D7"/>
					<stop  offset="0.2943" style="stop-color:#A5A5A5"/>
					<stop  offset="0.3783" style="stop-color:#797979"/>
					<stop  offset="0.4648" style="stop-color:#535353"/>
					<stop  offset="0.5546" style="stop-color:#353535"/>
					<stop  offset="0.6486" style="stop-color:#1E1E1E"/>
					<stop  offset="0.7487" style="stop-color:#0D0D0D"/>
					<stop  offset="0.8591" style="stop-color:#030303"/>
					<stop  offset="1" style="stop-color:#000000"/>
				</linearGradient>
				<polygon class="st3" points="43.3,37.5 158.4,-67.9 263.8,47.3 148.7,152.6 				"/>
			</g>
		</g>
	</mask>
	
		<linearGradient id="SVGID_9_" gradientUnits="userSpaceOnUse" x1="4.1075" y1="124.9592" x2="6.5763" y2="124.9592" gradientTransform="matrix(19.9651 -18.2722 -18.2722 -19.9651 2331.6587 2633.4634)">
		<stop  offset="0" style="stop-color:#00C4FF"/>
		<stop  offset="0.6339" style="stop-color:#00C4FF"/>
		<stop  offset="1" style="stop-color:#FFFFFF"/>
	</linearGradient>
	<polygon class="st4" points="98.3,40 156.1,-12.9 208.8,44.8 151.1,97.6 	"/>
</g>
<polygon class="st5" points="256.7,61.9 256.7,100 277.9,100 277.9,112.1 242.5,112.1 242.5,61.9 "/>
<g>
	<defs>
		<rect id="SVGID_10_" x="14" y="15.3" width="372.7" height="116.7"/>
	</defs>
	<clipPath id="SVGID_11_">
		<use xlink:href="#SVGID_10_"  style="overflow:visible;"/>
	</clipPath>
	<path class="st6" d="M319.6,98.1h-24.7c0.9,3.2,5,4.5,7.9,4.5c3.9,0,6.8-1.1,9.1-2.9l6.5,7.2c-4.2,3.9-10,5.9-16.1,5.9
		c-11.2,0-20.6-5.5-20.6-18.4c0-12.9,10.1-18.6,19.7-18.6C313.8,75.8,322.6,84.1,319.6,98.1 M307.8,89.7c-0.4-5.6-12-5.8-12.8,0
		H307.8z"/>
	<path class="st6" d="M330.2,112.1V87.5h-6V77.3h6v-1.7c0-10.4,8-14.5,15.3-14.5c4.1,0,8,1.3,10.7,3.9l-4,8
		c-1.4-1.2-3.1-1.7-4.8-1.7c-2.1,0-3.9,1.3-3.9,4.4v1.7h9.2v10.2h-9.2v24.6H330.2z"/>
	<path class="st6" d="M376.6,66.7v10.2h8V87h-8v11.6c0.1,2.5,1.5,3.4,3.5,3.4c1.3,0,2.8-0.5,3.9-1.2l2.9,9.7
		c-3,1.7-6.5,2.4-10.2,2.4c-7,0-13.3-3.2-13.1-14.3V87h-5.7V76.9h5.7v-8.8L376.6,66.7z"/>
</g>
</svg>
